<svg xmlns="http://www.w3.org/2000/svg" viewBox="0 0 64 64" role="img" aria-label="Kaalgeplukt — een half geplukte eend">
  <rect width="64" height="64" rx="14" fill="#211C18"/>
  <g transform="translate(7 11) scale(0.72)">
    <path d="M24 10 C31 10 35 13 36 18 C46 18 53 21 55 26 C56 22 59 20 61 22 C61 25 58 28 55 28 C56 36 53 44 41 48 C30 51 20 49 16 41 C13 35 13 26 17 22 C14 20 14 13 24 10 Z" fill="#ECEDE9" fill-opacity="0.10" stroke="#ECEDE9" stroke-width="2.0" stroke-linejoin="round"/>
    <path d="M17 23 C10 23 3 24.3 3 26.2 C3 28 10 28.6 17 28 Z" fill="#D9541E" stroke="#D9541E" stroke-width="1.6" stroke-linejoin="round"/>
    <circle cx="23" cy="20.5" r="1.9" fill="#211C18"/>
    <path d="M31 30 C39 28.5 46 30.5 48 34.5 C43 33.5 37 33.5 32 34 C31 32.5 31 31 31 30 Z" fill="#ECEDE9" fill-opacity="0.13" stroke="#ECEDE9" stroke-width="1.6" stroke-linejoin="round"/>
    <path d="M24 42 l0 3 M28 43 l0 3 M32 43 l0 2.5" stroke="#ECEDE9" stroke-width="1.4" stroke-linecap="round" opacity="0.5"/>
    <path d="M64 7 C60 8 57 11 56.2 15 l1.7-1.3 c1 .2 1.9 .1 2.7-.3 C64 12 65 9.4 64 7 Z" fill="#C9A063" fill-opacity="0.25" stroke="#C9A063" stroke-width="1.4" stroke-linejoin="round"/>
    <path d="M61.6 9 L57.4 13.6" stroke="#C9A063" stroke-width="1.3" stroke-linecap="round"/>
  </g>
</svg>
